HIERARCHY
ROOT Hips
{
	OFFSET 0.000000 0.000000 0.000000
	CHANNELS 6 Xposition Yposition Zposition Xrotation Yrotation Zrotation
	JOINT LeftUpLeg_virtual
	{
		OFFSET 0.000000 0.000000 0.000000
		CHANNELS 3 Xrotation Yrotation Zrotation
		JOINT LeftUpLeg
		{
			OFFSET 10.205400 -3.823500 0.155100
			CHANNELS 3 Xrotation Yrotation Zrotation
			JOINT LeftLeg
			{
				OFFSET 0.708757 -12.982077 0.567790
				CHANNELS 3 Xrotation Yrotation Zrotation
				JOINT LeftFoot
				{
					OFFSET -0.708756 -10.717838 -2.184338
					CHANNELS 3 Xrotation Yrotation Zrotation
					JOINT LeftToeBase
					{
						OFFSET 0.108149 -7.191104 7.560241
						CHANNELS 3 Xrotation Yrotation Zrotation
						JOINT LeftToe_End
						{
							OFFSET 0.070230 0.081724 4.490308
							CHANNELS 3 Xrotation Yrotation Zrotation
							End Site
							{
								OFFSET 0 0 0
							}
						}
					}
				}
			}
		}
	}
	JOINT RightUpLeg_virtual
	{
		OFFSET 0.000000 0.000000 0.000000
		CHANNELS 3 Xrotation Yrotation Zrotation
		JOINT RightUpLeg
		{
			OFFSET -10.205400 -3.823500 0.005500
			CHANNELS 3 Xrotation Yrotation Zrotation
			JOINT RightLeg
			{
				OFFSET -0.708756 -12.982134 0.610632
				CHANNELS 3 Xrotation Yrotation Zrotation
				JOINT RightFoot
				{
					OFFSET 0.708754 -10.717769 -1.945823
					CHANNELS 3 Xrotation Yrotation Zrotation
					JOINT RightToeBase
					{
						OFFSET -0.108140 -7.191069 7.372968
						CHANNELS 3 Xrotation Yrotation Zrotation
						JOINT RightToe_End
						{
							OFFSET -0.070227 0.081735 4.479403
							CHANNELS 3 Xrotation Yrotation Zrotation
							End Site
							{
								OFFSET 0 0 0
							}
						}
					}
				}
			}
		}
	}
	JOINT Spine_virtual
	{
		OFFSET 0.000000 0.000000 0.000000
		CHANNELS 3 Xrotation Yrotation Zrotation
		JOINT Spine
		{
			OFFSET 0.000000 6.876099 0.125700
			CHANNELS 3 Xrotation Yrotation Zrotation
			JOINT Spine1
			{
				OFFSET 0.000000 5.730043 0.104720
				CHANNELS 3 Xrotation Yrotation Zrotation
				JOINT Spine1_split
				{
					OFFSET 0.000000 5.730043 0.104720
					CHANNELS 3 Xrotation Yrotation Zrotation
					JOINT Spine2
					{
						OFFSET 0.000000 5.730043 0.104720
						CHANNELS 3 Xrotation Yrotation Zrotation
						JOINT Neck_virtual
						{
							OFFSET 0.000000 0.000000 0.000000
							CHANNELS 3 Xrotation Yrotation Zrotation
							JOINT Neck
							{
								OFFSET 0.000000 10.314075 0.188496
								CHANNELS 3 Xrotation Yrotation Zrotation
								JOINT Head
								{
									OFFSET 0.000000 7.643700 -2.377400
									CHANNELS 3 Xrotation Yrotation Zrotation
									JOINT HeadTop_End
									{
										OFFSET 0.000000 43.788605 -13.619600
										CHANNELS 3 Xrotation Yrotation Zrotation
										End Site
										{
											OFFSET 0 0 0
										}
									}
								}
							}
						}
						JOINT LeftShoulder_virtual
						{
							OFFSET 0.000000 0.000000 0.000000
							CHANNELS 3 Xrotation Yrotation Zrotation
							JOINT LeftShoulder
							{
								OFFSET 2.196100 4.412489 0.087492
								CHANNELS 3 Xrotation Yrotation Zrotation
								JOINT LeftShoulder_split
								{
									OFFSET 2.196100 4.412489 0.087492
									CHANNELS 3 Xrotation Yrotation Zrotation
									JOINT LeftArm
									{
										OFFSET 8.771219 -2.981674 -0.026999
										CHANNELS 3 Xrotation Yrotation Zrotation
										JOINT LeftForeArm
										{
											OFFSET 8.512804 0.000000 -0.000000
											CHANNELS 3 Xrotation Yrotation Zrotation
											JOINT LeftHand
											{
												OFFSET 18.484802 0.000000 -0.000000
												CHANNELS 3 Xrotation Yrotation Zrotation
												End Site
												{
													OFFSET 0 0 0
												}
											}
										}
									}
								}
							}
						}
						JOINT RightShoulder_virtual
						{
							OFFSET 0.000000 0.000000 0.000000
							CHANNELS 3 Xrotation Yrotation Zrotation
							JOINT RightShoulder
							{
								OFFSET -2.196100 4.412496 0.070690
								CHANNELS 3 Xrotation Yrotation Zrotation
								JOINT RightShoulder_split
								{
									OFFSET -2.196100 4.412496 0.070690
									CHANNELS 3 Xrotation Yrotation Zrotation
									JOINT RightArm
									{
										OFFSET -8.771282 -2.981682 -0.094208
										CHANNELS 3 Xrotation Yrotation Zrotation
										JOINT RightForeArm
										{
											OFFSET -8.494598 0.000000 0.000000
											CHANNELS 3 Xrotation Yrotation Zrotation
											JOINT RightHand
											{
												OFFSET -18.483803 0.000000 0.000001
												CHANNELS 3 Xrotation Yrotation Zrotation
												End Site
												{
													OFFSET 0 0 0
												}
											}
										}
									}
								}
							}
						}
					}
				}
			}
		}
	}
}
MOTION
Frames: 8
Frame Time: 0.03333333
-0.921932 26.562622 -3.306320 0.000000 0.000000 0.000000 -1.841927 -34.186149 3.952234 -24.840922 -2.458164 11.402325 58.202863 -2.164502 2.465328 -32.547153 10.055543 -19.465342 3.650907 -1.856891 -8.750476 0.000000 0.000000 0.000000 -1.851479 -35.161124 4.269228 -29.516280 -16.733456 -35.653024 63.558708 15.770425 -8.062895 -31.966696 -31.828873 37.972915 10.660113 17.134771 -27.331933 0.000000 0.000000 0.000000 -1.519576 -29.425479 2.316843 11.516487 2.807171 -2.596794 -2.150580 -1.046448 -1.704867 -0.033130 -0.208429 0.259206 0.000000 0.000000 0.000000 1.390976 1.409706 -0.126442 12.622476 11.312107 -1.235347 -16.252251 10.169511 -3.213915 0.000000 0.000000 0.000000 2.561648 -0.405453 -0.595894 1.490180 6.890979 -2.069053 -1.366110 -10.774658 -2.932802 -60.913027 -2.008465 -48.933374 -155.666677 -84.649355 -156.783973 0.000000 0.000000 0.000000 1.830963 -1.041559 -0.548951 -0.426562 9.612184 -4.394002 -0.531764 -4.748120 4.051185 -53.655255 29.121775 85.086501 -105.647618 77.029753 108.957022 0.000000 0.000000 0.000000 
-0.795726 26.347437 -2.855673 0.000000 0.000000 0.000000 -2.532223 -36.392081 3.726183 -26.423263 -3.123514 11.908284 59.592267 -1.577667 1.482264 -31.442786 11.452170 -19.410505 3.847848 -1.699217 -10.274576 0.000000 0.000000 0.000000 -2.181591 -36.705604 4.134772 -29.462332 -16.297714 -36.099592 66.469154 16.088775 -8.693349 -34.137859 -32.026672 36.670640 14.012837 16.147324 -27.293641 0.000000 0.000000 0.000000 -1.769156 -30.431409 2.247700 12.022830 3.121844 -2.715227 -1.756075 -0.976298 -1.671800 -0.003180 -0.203364 0.290543 0.000000 0.000000 0.000000 1.320788 1.311210 0.004631 12.241430 11.409565 -0.618778 -17.001207 10.918397 -4.238521 0.000000 0.000000 0.000000 2.218431 -0.259537 -0.603580 1.136081 7.041050 -2.590729 -0.170329 -12.868217 -0.827048 -62.035425 -1.557096 -48.552144 -165.824658 -85.474763 -167.399003 0.000000 0.000000 0.000000 1.820848 -1.006294 -0.577056 -0.559123 9.934164 -4.384826 1.228783 -4.087277 4.324113 -54.042943 30.727614 85.377549 -113.645154 76.366883 117.253543 0.000000 0.000000 0.000000 
-0.609998 25.731281 -2.149931 0.000000 0.000000 0.000000 -3.153396 -38.814196 3.356629 -30.415809 -4.188668 13.862099 64.889276 -3.271707 0.455577 -29.170044 11.022195 -20.929819 4.158162 -1.866273 -11.531353 0.000000 0.000000 0.000000 -2.316036 -38.558484 4.007689 -29.873461 -15.412110 -37.193949 69.874270 16.848514 -10.092680 -35.335120 -32.520532 37.190756 13.568462 15.936173 -26.646445 0.000000 0.000000 0.000000 -1.978598 -32.557442 2.204880 12.962508 4.004328 -2.359838 -1.309549 -0.760432 -1.625906 -0.021153 -0.109231 0.229453 0.000000 0.000000 0.000000 1.410271 1.312050 0.167155 11.697825 11.883797 -0.111032 -18.066639 13.187901 -5.948096 0.000000 0.000000 0.000000 1.905924 -0.088040 -0.555726 0.893267 6.467583 -3.601185 1.230884 -13.217038 1.060599 -63.242982 -0.469161 -47.470166 -175.694582 -86.633491 -178.196958 0.000000 0.000000 0.000000 1.608831 -0.922529 -0.498335 -0.713328 10.621407 -4.548874 1.330270 -3.493283 4.075169 -52.215471 31.569920 84.220440 -122.950194 74.981803 126.501251 0.000000 0.000000 0.000000 
-0.390001 24.789347 -1.244810 0.000000 0.000000 0.000000 -3.595518 -41.098935 3.040976 -36.164854 -5.707311 17.105095 73.002476 -7.370672 0.299359 -25.151962 8.542909 -24.601535 1.806521 -2.126171 -11.366612 0.000000 0.000000 0.000000 -2.202358 -40.571648 3.939475 -30.806014 -14.068695 -38.810433 72.859281 18.050920 -11.979381 -35.428266 -33.087724 39.149186 9.779676 16.383865 -25.735347 0.000000 0.000000 0.000000 -2.331816 -35.424650 2.100476 14.191808 5.305301 -1.675587 -0.807618 -0.401619 -1.688767 -0.006190 -0.010169 0.114305 0.000000 0.000000 0.000000 1.649947 1.470686 0.251343 10.953959 12.757257 0.283867 -19.526247 16.946811 -7.997986 0.000000 0.000000 0.000000 1.727855 0.130339 -0.576761 0.801671 5.452832 -4.817779 2.407343 -11.876546 2.173630 -63.752016 1.977837 -45.363156 176.156767 -87.144253 172.555454 0.000000 0.000000 0.000000 1.285157 -0.752155 -0.431365 -0.938869 11.588121 -4.917655 0.100100 -2.559610 3.363236 -48.553069 31.247665 81.954764 -129.318553 73.500000 132.430510 0.000000 0.000000 0.000000 
-0.089049 23.691359 -0.244972 0.000000 0.000000 0.000000 -3.656716 -43.345593 2.986705 -41.701051 -7.181997 21.069908 81.062399 -11.915066 0.956016 -21.806808 4.854986 -27.495446 -4.393123 -2.514644 -9.557125 0.000000 0.000000 0.000000 -1.808164 -42.603148 4.050049 -32.454873 -12.177847 -40.914042 75.097595 19.587898 -14.020579 -34.796546 -33.465632 41.822266 6.458079 16.754253 -25.384977 0.000000 0.000000 0.000000 -2.694381 -38.717774 2.093788 15.486820 6.638058 -0.863565 -0.305034 0.031903 -1.926133 0.037264 0.021259 0.020773 0.000000 0.000000 0.000000 2.076830 1.784245 0.154807 10.052010 13.969812 0.680391 -21.272722 21.792104 -10.097428 0.000000 0.000000 0.000000 1.695966 0.417853 -0.804669 0.798366 4.270988 -6.052464 3.344551 -10.655786 3.849410 -62.890183 6.742245 -41.784874 172.456826 -85.381449 167.720459 0.000000 0.000000 0.000000 0.999402 -0.446823 -0.475681 -1.318125 12.677391 -5.573167 -1.655063 -1.360124 2.403630 -44.102094 30.098226 79.530736 -132.379721 72.707555 134.759619 0.000000 0.000000 0.000000 
0.217949 22.662413 0.875189 0.000000 0.000000 0.000000 -3.108345 -45.353884 3.341565 -46.090202 -8.214947 25.742134 87.237423 -15.571580 1.934312 -19.519111 1.825569 -29.323146 -11.162832 -3.131198 -7.956452 0.000000 0.000000 0.000000 -1.282669 -44.428584 4.301839 -34.946192 -9.851631 -43.534082 76.666777 21.371486 -15.805937 -33.330975 -33.511319 44.868322 5.867407 16.824626 -26.271585 0.000000 0.000000 0.000000 -2.639390 -41.831200 2.398914 16.504841 7.657285 -0.111800 0.151645 0.470893 -2.272138 0.074225 -0.051314 -0.068373 0.000000 0.000000 0.000000 2.667960 2.179945 -0.114346 9.159197 15.268198 1.242457 -23.193342 27.380521 -12.014259 0.000000 0.000000 0.000000 1.735799 0.752974 -1.270846 0.832610 3.253218 -7.134636 3.771287 -9.901391 5.705654 -61.590131 13.172496 -37.710755 170.455321 -80.768353 164.575293 0.000000 0.000000 0.000000 0.930063 -0.019393 -0.638372 -1.885927 13.557601 -6.391762 -3.665911 -0.957351 1.418498 -39.947331 29.142464 78.286829 -133.216173 72.929762 134.770670 0.000000 0.000000 0.000000 
0.435811 21.858860 2.196356 0.000000 0.000000 0.000000 -1.888012 -47.750085 4.038249 -49.025998 -9.018040 30.669004 90.497473 -18.029292 3.095865 -17.068738 0.573681 -31.700206 -15.846700 -3.727464 -6.930889 0.000000 0.000000 0.000000 -0.682848 -45.674438 4.611246 -38.139428 -7.320165 -46.853195 77.776197 23.690503 -17.188140 -30.032195 -32.654451 49.343906 7.755703 16.744496 -28.590446 0.000000 0.000000 0.000000 -2.130216 -44.329639 2.882480 17.010690 7.972964 0.460628 0.523221 0.801425 -2.531019 0.113701 -0.094384 -0.073637 0.000000 0.000000 0.000000 3.340212 2.481225 -0.439515 8.313360 16.668638 2.078328 -24.878720 33.265521 -13.818302 0.000000 0.000000 0.000000 1.817032 1.015602 -1.835454 0.795816 2.586524 -8.014284 2.901771 -9.759598 6.845372 -60.853106 19.972793 -33.851042 166.957417 -74.366034 160.153019 0.000000 0.000000 0.000000 1.190463 0.421385 -0.770489 -2.594690 13.903000 -7.190467 -5.479466 -1.500466 0.760117 -36.735964 29.373502 78.228793 -134.623575 73.651815 135.524012 0.000000 0.000000 0.000000 
0.655993 21.374720 3.616974 0.000000 0.000000 0.000000 -0.439010 -50.142229 4.624490 -49.875083 -9.190154 35.480917 89.641534 -18.751041 3.559167 -14.660460 1.671570 -33.618997 -16.509421 -4.233457 -6.236773 0.000000 0.000000 0.000000 -0.414326 -46.542080 4.610956 -41.105096 -5.013966 -50.451117 78.070210 26.388656 -18.034597 -25.564312 -30.503003 54.090450 11.568714 16.748493 -31.788653 0.000000 0.000000 0.000000 -1.080433 -45.919054 3.524564 16.834007 7.318043 0.716136 0.819874 0.823871 -2.462583 0.078797 -0.104141 0.046807 0.000000 0.000000 0.000000 3.962511 2.479270 -0.608271 7.543218 18.128116 3.224254 -25.446189 39.214049 -15.865211 0.000000 0.000000 0.000000 1.935698 0.992219 -2.199181 0.652226 2.358052 -8.530625 2.758915 -9.855356 7.608844 -61.402117 24.998754 -30.848843 160.221936 -69.260516 152.571973 0.000000 0.000000 0.000000 1.694099 0.648215 -0.664438 -3.458997 13.415904 -7.589017 -6.191905 -2.378074 0.479634 -34.819956 31.417921 78.891144 -140.051718 74.050254 140.611725 0.000000 0.000000 0.000000 
